<svg viewBox="0 0 1244.4 832.1" xmlns="http://www.w3.org/2000/svg" xmlns:xlink="http://www.w3.org/1999/xlink"><linearGradient id="a" gradientTransform="matrix(-1 0 0 -1 892 562)" gradientUnits="userSpaceOnUse" x1="-201.1" x2="373" y1="489.6" y2="489.6"><stop offset="0" stop-color="#2dd2f3"/><stop offset="1" stop-color="#20e0d6"/></linearGradient><linearGradient id="b" gradientTransform="matrix(0 1 -1 0 -6346 1656)" x1="-1601.1" x2="-1601.1" xlink:href="#a" y1="-6722.3" y2="-6506.3"/><linearGradient id="c" gradientTransform="matrix(0 1 -1 0 -6346 1656)" gradientUnits="userSpaceOnUse" x1="-1588" x2="-1371.7" y1="-6505.4" y2="-6505.4"><stop offset="0" stop-color="#ff8389"/><stop offset="1" stop-color="#ff5290"/></linearGradient><linearGradient id="d" gradientTransform="matrix(0 1 -1 0 -6346 1656)" gradientUnits="userSpaceOnUse" x1="-1597.8" x2="-1429.1" y1="-6735.4" y2="-6735.4"><stop offset="0" stop-color="#2cb4ff"/><stop offset="0" stop-color="#2cb2ff"/><stop offset="1" stop-color="#4980ff"/></linearGradient><linearGradient id="e" x1="475.2" x2="546.4" xlink:href="#c" y1="146.1" y2="146.1"/><linearGradient id="f" gradientUnits="userSpaceOnUse" x1="172.2" x2="746.3" y1="266.8" y2="266.8"><stop offset="0" stop-color="#8960ff"/><stop offset="1" stop-color="#5c5cff"/></linearGradient><linearGradient id="g" gradientTransform="matrix(0 -1 1 0 7240 -1094)" x1="-1378.4" x2="-1378.4" xlink:href="#f" y1="-6349" y2="-6133"/><linearGradient id="h" gradientTransform="matrix(0 -1 1 0 7240 -1094)" x1="-1365.2" x2="-1148.9" xlink:href="#d" y1="-6132.1" y2="-6132.1"/><linearGradient id="i" gradientTransform="matrix(0 -1 1 0 7240 -1094)" x1="-1375.1" x2="-1206.4" xlink:href="#c" y1="-6362" y2="-6362"/><linearGradient id="j" gradientTransform="matrix(-1 0 0 -1 892 562)" x1="101.9" x2="173.1" xlink:href="#d" y1="368.8" y2="368.8"/><linearGradient id="k" x1="124.7" x2="427.4" xlink:href="#c" y1="633.8" y2="633.8"/><linearGradient id="l" x1="484.7" x2="787.4" xlink:href="#c" y1="633.8" y2="633.8"/><linearGradient id="m" x1="846.6" x2="1149.4" xlink:href="#c" y1="633.8" y2="633.8"/><path d="m550 66 4 30 3-3a109 109 0 0 1 144-9l15 15a155 155 0 0 0 37 21 156 156 0 0 0 59 12 156 156 0 0 0 59-12 155 155 0 0 0 41-24l1-1 1-1 1-1a109 109 0 0 1 144-9l31-4 4-30a157 157 0 0 0 -213 9l-1 2h-1a107 107 0 0 1 -26 15 109 109 0 0 1 -41 8 109 109 0 0 1 -41-8 108 108 0 0 1 -23-13l-15-12c-16-11-24-20-40-27a157 157 0 0 0 -170 35l-3 4z" fill="url(#a)"/><path d="m372 80 4-29a157 157 0 0 0 -213 8l-3 3 30 4 4 30 3-3a109 109 0 0 1 144-9z" fill="url(#b)"/><path d="m200 250-3-4a109 109 0 0 1 -9-144l-3-31-30-3a157 157 0 0 0 8 212l4 4 3-30z" fill="url(#c)"/><path d="m427 202a156 156 0 0 0 -42-143l-4-4-3 30-31 4 4 4a109 109 0 0 1 17 131c26-14 47-20 59-22z" fill="url(#d)"/><path d="m538 224a109 109 0 0 1 -7-95 108 108 0 0 1 15-27l-3-31-30-3a156 156 0 0 0 -38 102 157 157 0 0 0 4 34c10 1 38 7 59 20z" fill="url(#e)"/><path d="m716 273-4-30-3 4a109 109 0 0 1 -118 23c-10-3-18-10-26-16l-15-14a157 157 0 0 0 -155-21c-15 6-30 15-42 25l-1 1-1 1a109 109 0 0 1 -144 9l-31 4-4 30a157 157 0 0 0 213-9c8-6 19-13 28-17a109 109 0 0 1 105 13l14 11c16 11 24 20 41 28 18 8 39 11 59 11a156 156 0 0 0 111-46l3-3z" fill="url(#f)"/><path d="m894 259-4 30a157 157 0 0 0 213-9l3-3-30-4-4-30-3 3a109 109 0 0 1 -144 9z" fill="url(#g)"/><path d="m1066 89 3 4a109 109 0 0 1 9 144l4 31 29 3a157 157 0 0 0 -8-212l-4-4-3 31z" fill="url(#h)"/><path d="m839 138a157 157 0 0 0 42 142l4 4 3-30 31-4a107 107 0 0 1 -4-3 109 109 0 0 1 -17-132c-26 14-46 20-59 23z" fill="url(#i)"/><path d="m728 115a106 106 0 0 1 7 14 109 109 0 0 1 -15 108l3 31 30 3a157 157 0 0 0 34-136c-10-1-38-7-59-20z" fill="url(#j)"/><path d="m308 736h-77l38 70z" fill="#d9e2ed"/><path d="m423 532h-303l37 68h228z" fill="#858d9e"/><path d="m231 736h77l39-69h-153z" fill="#c8d2e0"/><path d="m157 600 37 67h153l38-67z" fill="url(#k)"/><path d="m157 600 37 67h153l38-67z" fill="#9ba6bf"/><path d="m250 770h37v40h-37zm418-34h-77l38 70z" fill="#d9e2ed"/><path d="m783 532h-303l37 68h228z" fill="#858d9e"/><path d="m591 736h77l39-69h-153z" fill="#c8d2e0"/><path d="m517 600 37 67h153l38-67z" fill="url(#l)"/><path d="m517 600 37 67h153l38-67z" fill="#9ba6bf"/><path d="m610 770h37v40h-37zm420-34h-77l38 70z" fill="#d9e2ed"/><path d="m1145 532h-303l37 68h228z" fill="#858d9e"/><path d="m953 736h77l39-69h-153z" fill="#c8d2e0"/><path d="m879 600 37 67h153l38-67z" fill="url(#m)"/><path d="m879 600 37 67h153l38-67z" fill="#9ba6bf"/><path d="m972 770h37v40h-37z" fill="#d9e2ed"/><g fill="#c8d2e0"><circle cx="87.1" cy="718.3" r="1.6"/><path d="m89 731a2 2 0 1 0 -2 2 2 2 0 0 0 2-2zm0 13a2 2 0 1 0 -2 2 2 2 0 0 0 2-2z"/><circle cx="87.1" cy="757.3" r="1.6"/><circle cx="87.1" cy="770.3" r="1.6"/><circle cx="87.1" cy="783.3" r="1.6"/><path d="m89 796a2 2 0 1 0 -2 2 2 2 0 0 0 2-2z"/><circle cx="87.1" cy="809.3" r="1.6"/><circle cx="87.1" cy="822.3" r="1.6"/><circle cx="74.1" cy="718.3" r="1.6"/><path d="m76 731a2 2 0 1 0 -2 2 2 2 0 0 0 2-2zm0 13a2 2 0 1 0 -2 2 2 2 0 0 0 2-2z"/><circle cx="74.1" cy="757.3" r="1.6"/><circle cx="74.1" cy="770.3" r="1.6"/><circle cx="74.1" cy="783.3" r="1.6"/><path d="m76 796a2 2 0 1 0 -2 2 2 2 0 0 0 2-2z"/><circle cx="74.1" cy="809.3" r="1.6"/><circle cx="74.1" cy="822.3" r="1.6"/><path d="m63 718a2 2 0 1 0 -2 2 2 2 0 0 0 2-2zm0 13a2 2 0 1 0 -2 2 2 2 0 0 0 2-2zm0 13a2 2 0 1 0 -2 2 2 2 0 0 0 2-2zm0 13a2 2 0 1 0 -2 2 2 2 0 0 0 2-2zm0 13a2 2 0 1 0 -2 2 2 2 0 0 0 2-2zm0 13a2 2 0 1 0 -2 2 2 2 0 0 0 2-2zm0 13a2 2 0 1 0 -2 2 2 2 0 0 0 2-2zm0 13a2 2 0 1 0 -2 2 2 2 0 0 0 2-2zm0 13a2 2 0 1 0 -2 2 2 2 0 0 0 2-2zm-13-104a2 2 0 1 0 -2 2 2 2 0 0 0 2-2zm0 13a2 2 0 1 0 -2 2 2 2 0 0 0 2-2zm0 13a2 2 0 1 0 -2 2 2 2 0 0 0 2-2zm0 13a2 2 0 1 0 -2 2 2 2 0 0 0 2-2zm0 13a2 2 0 1 0 -2 2 2 2 0 0 0 2-2zm0 13a2 2 0 1 0 -2 2 2 2 0 0 0 2-2zm0 13a2 2 0 1 0 -2 2 2 2 0 0 0 2-2zm0 13a2 2 0 1 0 -2 2 2 2 0 0 0 2-2zm0 13a2 2 0 1 0 -2 2 2 2 0 0 0 2-2z"/><circle cx="35.1" cy="718.3" r="1.6"/><path d="m37 731a2 2 0 1 0 -2 2 2 2 0 0 0 2-2zm0 13a2 2 0 1 0 -2 2 2 2 0 0 0 2-2z"/><circle cx="35.1" cy="757.3" r="1.6"/><circle cx="35.1" cy="770.3" r="1.6"/><circle cx="35.1" cy="783.3" r="1.6"/><path d="m37 796a2 2 0 1 0 -2 2 2 2 0 0 0 2-2z"/><circle cx="35.1" cy="809.3" r="1.6"/><circle cx="35.1" cy="822.3" r="1.6"/><circle cx="22.1" cy="718.3" r="1.6"/><path d="m24 731a2 2 0 1 0 -2 2 2 2 0 0 0 2-2zm0 13a2 2 0 1 0 -2 2 2 2 0 0 0 2-2z"/><circle cx="22.1" cy="757.3" r="1.6"/><circle cx="22.1" cy="770.3" r="1.6"/><circle cx="22.1" cy="783.3" r="1.6"/><path d="m24 796a2 2 0 1 0 -2 2 2 2 0 0 0 2-2z"/><circle cx="22.1" cy="809.3" r="1.6"/><circle cx="22.1" cy="822.3" r="1.6"/><circle cx="9.1" cy="718.3" r="1.6"/><path d="m11 731a2 2 0 1 0 -2 2 2 2 0 0 0 2-2zm0 13a2 2 0 1 0 -2 2 2 2 0 0 0 2-2z"/><circle cx="9.1" cy="757.3" r="1.6"/><circle cx="9.1" cy="770.3" r="1.6"/><circle cx="9.1" cy="783.3" r="1.6"/><path d="m11 796a2 2 0 1 0 -2 2 2 2 0 0 0 2-2z"/><circle cx="9.1" cy="809.3" r="1.6"/><circle cx="9.1" cy="822.3" r="1.6"/><circle cx="1233.9" cy="9.7" r="1.6"/><path d="m1235 23a2 2 0 1 0 -1 1 2 2 0 0 0 1-1zm0 13a2 2 0 1 0 -1 1 2 2 0 0 0 1-1z"/><circle cx="1233.9" cy="48.7" r="1.6"/><circle cx="1233.9" cy="61.7" r="1.6"/><circle cx="1233.9" cy="74.7" r="1.6"/><path d="m1235 88a2 2 0 1 0 -1 1 2 2 0 0 0 1-1z"/><circle cx="1233.9" cy="100.7" r="1.6"/><circle cx="1233.9" cy="113.7" r="1.6"/><circle cx="1233.9" cy="126.7" r="1.6"/><path d="m1235 140a2 2 0 1 0 -1 1 2 2 0 0 0 1-1z"/><circle cx="1233.9" cy="152.7" r="1.6"/><circle cx="1233.9" cy="165.7" r="1.6"/><circle cx="1233.9" cy="178.7" r="1.6"/><circle cx="1233.9" cy="191.7" r="1.6"/><path d="m1235 205a2 2 0 1 0 -1 1 2 2 0 0 0 1-1z"/><circle cx="1233.9" cy="217.7" r="1.6"/><circle cx="1233.9" cy="230.7" r="1.6"/><circle cx="1233.9" cy="243.7" r="1.6"/><path d="m1235 257a2 2 0 1 0 -1 1 2 2 0 0 0 1-1z"/><circle cx="1233.9" cy="269.7" r="1.6"/><circle cx="1233.9" cy="282.7" r="1.6"/><circle cx="1233.9" cy="295.7" r="1.6"/><circle cx="1233.9" cy="308.7" r="1.6"/><path d="m1235 322a2 2 0 1 0 -1 1 2 2 0 0 0 1-1zm-13-312a2 2 0 1 0 -1 1 2 2 0 0 0 1-1zm0 13a2 2 0 1 0 -1 1 2 2 0 0 0 1-1zm0 13a2 2 0 1 0 -1 1 2 2 0 0 0 1-1zm0 13a2 2 0 1 0 -1 1 2 2 0 0 0 1-1zm0 13a2 2 0 1 0 -1 1 2 2 0 0 0 1-1zm0 13a2 2 0 1 0 -1 1 2 2 0 0 0 1-1zm0 13a2 2 0 1 0 -1 1 2 2 0 0 0 1-1zm0 13a2 2 0 1 0 -1 1 2 2 0 0 0 1-1zm0 13a2 2 0 1 0 -1 1 2 2 0 0 0 1-1zm0 13a2 2 0 1 0 -1 1 2 2 0 0 0 1-1zm0 13a2 2 0 1 0 -1 1 2 2 0 0 0 1-1zm0 13a2 2 0 1 0 -1 1 2 2 0 0 0 1-1zm0 13a2 2 0 1 0 -1 1 2 2 0 0 0 1-1zm0 13a2 2 0 1 0 -1 1 2 2 0 0 0 1-1zm0 13a2 2 0 1 0 -1 1 2 2 0 0 0 1-1zm0 13a2 2 0 1 0 -1 1 2 2 0 0 0 1-1zm0 13a2 2 0 1 0 -1 1 2 2 0 0 0 1-1zm0 13a2 2 0 1 0 -1 1 2 2 0 0 0 1-1zm0 13a2 2 0 1 0 -1 1 2 2 0 0 0 1-1zm0 13a2 2 0 1 0 -1 1 2 2 0 0 0 1-1zm0 13a2 2 0 1 0 -1 1 2 2 0 0 0 1-1zm0 13a2 2 0 1 0 -1 1 2 2 0 0 0 1-1zm0 13a2 2 0 1 0 -1 1 2 2 0 0 0 1-1zm0 13a2 2 0 1 0 -1 1 2 2 0 0 0 1-1zm0 13a2 2 0 1 0 -1 1 2 2 0 0 0 1-1z"/><circle cx="1207.9" cy="9.7" r="1.6"/><path d="m1209 23a2 2 0 1 0 -1 1 2 2 0 0 0 1-1zm0 13a2 2 0 1 0 -1 1 2 2 0 0 0 1-1z"/><circle cx="1207.9" cy="48.7" r="1.6"/><circle cx="1207.9" cy="61.7" r="1.6"/><circle cx="1207.9" cy="74.7" r="1.6"/><path d="m1209 88a2 2 0 1 0 -1 1 2 2 0 0 0 1-1z"/><circle cx="1207.9" cy="100.7" r="1.6"/><circle cx="1207.9" cy="113.7" r="1.6"/><circle cx="1207.9" cy="126.7" r="1.6"/><path d="m1209 140a2 2 0 1 0 -1 1 2 2 0 0 0 1-1z"/><circle cx="1207.9" cy="152.7" r="1.6"/><circle cx="1207.9" cy="165.7" r="1.6"/><circle cx="1207.9" cy="178.7" r="1.6"/><circle cx="1207.9" cy="191.7" r="1.6"/><path d="m1209 205a2 2 0 1 0 -1 1 2 2 0 0 0 1-1z"/><circle cx="1207.9" cy="217.7" r="1.6"/><circle cx="1207.9" cy="230.7" r="1.6"/><circle cx="1207.9" cy="243.7" r="1.6"/><path d="m1209 257a2 2 0 1 0 -1 1 2 2 0 0 0 1-1z"/><circle cx="1207.9" cy="269.7" r="1.6"/><circle cx="1207.9" cy="282.7" r="1.6"/><circle cx="1207.9" cy="295.7" r="1.6"/><circle cx="1207.9" cy="308.7" r="1.6"/><path d="m1209 322a2 2 0 1 0 -1 1 2 2 0 0 0 1-1z"/><circle cx="1194.9" cy="9.7" r="1.6"/><path d="m1196 23a2 2 0 1 0 -1 1 2 2 0 0 0 1-1zm0 13a2 2 0 1 0 -1 1 2 2 0 0 0 1-1z"/><circle cx="1194.9" cy="48.7" r="1.6"/><circle cx="1194.9" cy="61.7" r="1.6"/><circle cx="1194.9" cy="74.7" r="1.6"/><path d="m1196 88a2 2 0 1 0 -1 1 2 2 0 0 0 1-1z"/><circle cx="1194.9" cy="100.7" r="1.6"/><circle cx="1194.9" cy="113.7" r="1.6"/><circle cx="1194.9" cy="126.7" r="1.6"/><path d="m1196 140a2 2 0 1 0 -1 1 2 2 0 0 0 1-1z"/><circle cx="1194.9" cy="152.7" r="1.6"/><circle cx="1194.9" cy="165.7" r="1.6"/><circle cx="1194.9" cy="178.7" r="1.6"/><circle cx="1194.9" cy="191.7" r="1.6"/><path d="m1196 205a2 2 0 1 0 -1 1 2 2 0 0 0 1-1z"/><circle cx="1194.9" cy="217.7" r="1.6"/><circle cx="1194.9" cy="230.7" r="1.6"/><circle cx="1194.9" cy="243.7" r="1.6"/><path d="m1196 257a2 2 0 1 0 -1 1 2 2 0 0 0 1-1z"/><circle cx="1194.9" cy="269.7" r="1.6"/><circle cx="1194.9" cy="282.7" r="1.6"/><circle cx="1194.9" cy="295.7" r="1.6"/><circle cx="1194.9" cy="308.7" r="1.6"/><path d="m1196 322a2 2 0 1 0 -1 1 2 2 0 0 0 1-1z"/></g></svg>